<?xml version="1.0" encoding="UTF-8" ?><svg width="128" height="85" xmlns="http://www.w3.org/2000/svg" version="1.1"><g id="icon"><polygon points="44.9,62.2 45,62.4 45.2,62.5 45.4,62.6 45.4,62.1 45.7,60.7 45.6,60.2 44.8,59.4 44.5,59 44.6,58.8 45.1,58.2 45.5,58 45.7,57.8 45.7,57.5 45.8,57.1 45.9,56.7 46.2,56.5 46.3,56.2 46.5,56 46.7,55.9 46.8,55.8 46.8,54.9 47.3,54 48.1,53.2 49,52.6 50.4,52 51.4,51.7 51.9,51.7 52.3,51.6 53.2,51.2 53.7,51.1 53.7,51 53.8,51.1 53.9,50.9 54.3,51 54.6,50.7 55,50.3 55.4,50 55,49.6 54.9,49 55,48.6 55.4,48.8 55.7,48.4 55.8,48.6 56.8,47.1 57.1,46.7 58,46.3 58.3,46 59.2,45 59.6,44.8 60.5,44.5 60.7,44.4 61.5,43.6 61.7,43.5 62.3,43.4 63.1,43.2 63.8,42.7 64.1,42.1 63.8,41.5 63.2,40.8 62,39.7 61.3,38.8 60.5,37.7 60.4,37.5 60.2,37.2 58.9,36.1 58.6,34.9 58.3,34.4 57.4,34.7 56.9,34.3 56.4,33.7 56.2,33.1 56,30.7 55.6,29.9 54.4,29.5 53.7,29.7 53.4,29.5 53.2,28.7 53.1,28.3 53.1,28 53.2,27.7 53.1,26.7 53.1,26.4 53.2,26.2 53.1,25.9 53,25.5 53.1,25.1 53.4,24.2 53.4,24.2 53.3,23.9 53.2,23.7 53.4,23.6 53.5,23.5 53.7,23.2 53.9,22.7 54.3,22.9 54.8,22.8 55.2,22.5 55.4,22 55.5,21.2 55.8,20.9 56.1,20.7 56.3,20.1 56.3,19.5 55.9,19 55.5,18.6 55.4,18.3 55.3,18.1 55.2,18 55.1,18 55,18 54.9,17.9 54.9,17.8 54.9,17.7 54.9,17.6 54.6,17.2 54.5,16.9 54.4,16.7 54.7,16.2 55.2,15.7 55.7,15.4 56.1,15.2 56.6,15.1 57.1,14.7 58,13.5 58.1,13.4 58.1,13.4 58.1,13 58.2,12.8 58.4,12.6 58.7,12.5 58.9,12.4 59.2,12.2 60.4,10.5 60.9,9.1 61.2,8.3 61.2,8 61.4,7.6 62.6,6.4 62.7,6.3 62.8,6 62.9,5.9 63,5.8 63.3,5.8 63.6,5.5 63.8,5.4 64.3,5.4 64.8,5.1 64.8,5 67.1,6.4 69.5,7.9 71.8,9.3 74.1,10.7 76.5,12.2 78.8,13.6 81.1,15 83.5,16.4 83.4,17 83.2,18.3 82.3,20.6 81.5,22.4 81.1,23 80.9,23.5 80.8,23.9 80.8,24.2 80.6,24.6 80.5,25.1 80.1,25.5 79.6,25.9 79.2,26.5 79,26.9 78.7,27 78.2,27.2 77.9,27.2 78,26.8 78.8,25.3 78.6,24.9 78.3,25.4 78.1,25.8 77.9,26.2 77.7,26.6 77.5,26.7 77,27 76.8,27.1 76.3,27.6 76.2,28.9 76,29.5 75.8,29.7 75.4,29.8 75.1,30.1 75.1,30.6 75,31.3 74.9,31.6 74.6,31.8 74.9,32.2 75.2,33 76,33.2 76.4,33.5 76.6,33.5 77.8,33.3 78.4,33.4 80.5,34.1 81.4,34.7 81.6,34.6 81.4,34.1 81.3,33.5 80.8,32.3 81.5,32.7 81.8,33.3 81.8,33.9 82,35 81.9,37.1 81.7,38.5 81.5,40.2 81,42 80.8,42.8 80.7,43.7 80.6,44.7 80.4,45.7 80.3,46.3 80.2,47.2 79.9,48.6 79.8,49.2 79.7,50.1 79.6,51 79.1,54 78.9,53.8 79.4,49.5 79.6,48 79.7,47.4 79.9,46.8 80.1,46.1 80.1,45.5 79.8,45.2 79.4,45.6 79.4,45.8 79.7,45.9 79.8,46.2 79.5,46.4 79.3,46.8 78.8,46.7 78.7,47.1 78.4,47.2 78.3,47.7 78.8,47.6 78.9,48.1 78.6,48.7 78.1,49.2 78.6,49.3 78.7,49.6 78.3,50.1 78,50.5 78.2,51.1 78.3,51.6 78.3,51.8 77.8,52.4 77.4,53.1 76.9,54.2 76.8,55 77.4,55.3 77.5,55.7 77.4,56.2 77.3,56.4 77,56.6 76.6,57.1 76.3,57.9 75.5,58.1 75.3,58.5 75.4,58.8 75.2,59.1 74.8,59.2 74.4,59.3 74,59.6 73.5,60.2 73.5,60.6 74.1,61.2 74.4,61.8 74.3,62.2 73.9,62.3 73.8,62 73.8,61.7 73.7,61.6 72.8,61 72.5,61.2 72.2,61.1 71.9,61 71.7,60.7 71.7,61.9 71.8,62.4 72.1,62.6 72.3,62.9 72.2,63.4 71.9,64.1 71.6,64 71.3,63.9 71.1,63.8 70.7,64.1 70.5,64.3 70.4,64.7 70.3,65.2 70.2,65.6 70.7,65.3 71,65.7 71.3,66.3 71.5,66.8 70.8,67.2 69.4,68 68.8,68.3 68.8,68.1 69,67.7 69.3,67.3 69.9,66.6 69.3,66.2 68.5,67.1 68.2,67.7 68.3,68.1 68.3,68.3 66.8,68.2 66.1,68.4 65.7,68.9 66.1,68.9 66.4,69.1 66.7,69.2 67,69.3 68.3,68.9 68.3,69.1 67.6,69.6 66.6,70.9 66.1,71.2 65.8,71.6 64.7,73.9 64.5,73.7 64.2,73.7 64,73.8 63.8,74.1 63.9,74.1 63.9,74.2 63.9,74.2 63.9,74.3 64.2,74.2 64.4,74.2 64.5,74.4 64.6,74.7 64.4,74.9 63.9,75.6 63.7,76.1 63.5,76.2 63.3,76.4 62.7,76.5 62.7,76.8 62.8,77 62.8,77.2 62.3,78.1 61.6,78.8 60.6,79.4 59.3,79.9 59,80 58.8,79.9 58.5,79.7 58.4,79.3 58.5,79 58.6,78.6 58.7,78.1 58.8,77.5 59,77 60.2,74.4 60.4,73.3 59.9,72.3 59.5,72 59.1,71.9 58.2,71.8 58,71.9 57.6,72 57.4,72 57.2,72 57.1,71.8 57.2,71.6 57.1,71.3 56.7,71.2 56.3,71.2 55.5,71.4 55.2,71.6 54.9,71.9 54.7,72 54.2,72 54.3,71.9 53.9,71.7 53.8,71.4 53.7,71.1 53.8,70.8 53.8,70.6 53.6,70.4 52.7,69.7 52.4,69.5 52.2,69.4 52,68.8 51.8,68.7 50.9,68.7 50.5,68.5 50.3,68 50.1,67.6 49.9,67.2 49.7,67.2 49.5,67.3 49.3,67.4 49.2,67.4 49,67.3 48.9,67.1 48.8,67 46.4,64.3 45.7,63.8 45.2,63.2" /><polygon points="72.8,64.1 72.6,63.6 73,63.4 74.1,63.6 74.1,63.7 73.9,63.9 73.8,63.9 73.5,64.7 72.8,65.5 72,65.9 71.2,65.7 70.7,64.9 71.1,64.8 71.3,65 71.5,65.4 71.8,65.6 72.2,65.3 72.5,64.4" /><polygon points="78.1,55.9 78.5,55.2 78.7,54.9 79,54.7 78.8,55.5 78.2,56.3 77.8,57.4 76.9,59 75.8,60.9 75.2,61.8 75.2,61.6 75.3,61.4 75.3,61 75.6,60.2 77.5,56.8" /></g></svg>