<?xml version="1.0" encoding="UTF-8" ?><svg width="128" height="85" xmlns="http://www.w3.org/2000/svg" version="1.1"><g id="icon"><polygon points="20.3,8.3 20.3,8.3 20.3,9.1 20.3,9.9 20.3,10.7 20.3,11.5 20.3,12.3 20.3,13.1 20.3,13.9 20.3,14.7 20.4,15.6 21.1,15.6 23.8,15.6 26.6,15.6 29.4,15.6 32.1,15.6 34.9,15.6 37.6,15.6 40.4,15.6 43.1,15.6 45.9,15.6 48.7,15.6 51.4,15.7 54.2,15.7 56.9,15.7 59.7,15.7 62.4,15.7 65.2,15.7 68,15.7 70.7,15.7 73.5,15.7 76.2,15.7 79,15.7 81.7,15.7 84.5,15.7 87.3,15.7 90,15.7 92.8,15.7 95.5,15.7 98.3,15.7 101,15.7 103.8,15.7 106.6,15.7 109.3,15.7 109.8,15.7 110,15.7 110,16.1 110.5,16.4 111.1,16.7 111.6,17 111.7,17.5 111.7,18.2 111.8,18.8 112.2,19.1 113.3,18.9 113.6,19 114,19.4 114.5,19.6 114.8,20.1 115,20.2 115.3,20.3 115.2,20.6 114.7,21.1 115.2,21.4 115.5,21.5 115.8,21.8 115.8,22.3 115.8,22.6 115.5,22.8 115.4,23.1 115.7,24.1 115.7,24.7 115.6,26.1 115.7,26.4 115.9,26.6 116.9,28.8 117.2,29.3 117.6,29.6 118.5,29.8 118.7,30 118.9,30.3 119.2,30.6 119.7,30.7 120.7,30.6 121.1,30.9 121.3,31.1 121.5,31.1 121.7,31 122,31 122.1,31.1 122.2,31.3 122.4,31.7 122.6,32 122.9,32.6 123,33.1 123,33.1 122.6,33.4 122.1,33.4 121.9,33.5 121.7,33.8 121.4,33.8 121.3,33.9 121.3,34 121.2,34.2 121.1,34.3 120,35.3 119.9,35.7 119.9,35.9 119.7,36.6 119.2,37.8 118.1,39.3 117.9,39.5 117.7,39.5 117.5,39.7 117.3,39.8 117.2,39.9 117.3,40.3 117.2,40.3 117.2,40.4 116.3,41.4 116,41.7 115.5,41.9 115.2,42 114.7,42.3 114.3,42.7 114.1,43.2 114.1,43.4 114.2,43.6 114.5,43.9 114.5,44 114.5,44.1 114.5,44.2 114.5,44.3 114.7,44.3 114.8,44.3 114.9,44.4 114.9,44.6 115,44.8 115.4,45.1 115.6,45.6 115.7,46.1 115.5,46.6 115.2,46.8 115,47 114.9,47.7 114.8,48.2 114.4,48.4 114,48.5 113.6,48.3 113.4,48.8 113.3,49 113.2,49.1 113.1,49.2 113.1,49.4 113.2,49.6 113.2,49.6 113,50.4 112.9,50.7 112.9,51 113,51.3 113,51.5 112.9,51.8 113,52.6 112.9,52.9 113,53.2 113,53.4 113.2,54.2 113.5,54.3 114.1,54.2 115.1,54.5 115.4,55.2 115.6,57.3 115.8,57.8 116.2,58.3 116.6,58.6 117.4,58.3 117.7,58.8 117.9,59.8 119,60.8 119.2,61 119.3,61.2 119.9,62.2 120.6,62.9 121.7,63.9 122.2,64.4 122.4,65 122.1,65.5 121.6,65.9 120.9,66.1 120.4,66.2 120.2,66.3 119.5,66.9 119.3,67 118.5,67.3 118.2,67.5 117.4,68.4 117.1,68.6 116.4,68.9 115.9,69.1 115.3,69.7 114.8,69.8 114.5,70 114.2,70.5 114.1,71.1 114.2,71.7 113.9,71.9 112.7,72.4 111.8,72.9 111.4,72.9 110.9,72.7 109.6,73.4 109.3,73.4 109,73.6 108.3,74.5 108.3,74.4 108.1,74.3 107.8,74.2 107.4,74 106.9,73.8 106.2,73.6 105.3,73.6 104.7,73.6 104.1,73.8 103.7,74 103.1,74.2 102.7,74.6 102.1,75.1 101.5,75.9 101.2,76.7 101.1,76.7 101,76.7 100.9,76.7 98.6,76.7 96.3,76.7 94,76.7 91.6,76.7 89.3,76.7 87,76.7 84.6,76.7 82.3,76.7 79.9,76.7 77.6,76.7 75.3,76.7 72.9,76.7 70.6,76.7 68.2,76.7 65.9,76.7 63.6,76.7 61.2,76.7 58.9,76.7 56.5,76.7 54.2,76.7 51.9,76.7 49.5,76.7 47.2,76.7 44.8,76.7 42.5,76.7 40.2,76.7 37.8,76.7 35.5,76.7 33.2,76.7 30.8,76.7 28.5,76.7 26.1,76.7 23.5,76.7 20.9,76.7 18.2,76.7 15.6,76.7 12.9,76.7 10.3,76.7 7.7,76.7 5,76.7 5,74.9 5,73 5,71.2 5,69.3 5,67.2 5,65.1 5,63 5,60.8 5,58.7 5,56.6 5,54.4 5,52.3 5,52.3 5,52.2 5,52.2 5,52.2 5,52.2 5,52.2 5,52.2 5,52.2 5,49.3 5,46.5 5,43.7 5,40.9 5,38.1 5,35.3 5,32.4 5,29.6 5,26.8 5,23.9 5,21.1 5,18.2 5,16.1 6,15.7 6.3,15.4 6.6,15.2 7.9,15 11.3,13.1 11.9,12.6 12,12.5 12.2,12.4 12.5,11.8 13,11.4 13.4,11.1 13.7,10.9 14.2,11.1 14,11.3 13.8,11.4 13.3,11.4 13.2,11.5 12.9,11.9 12.8,12 12.8,12.2 13.3,12 14.3,11.4 15.2,11.1 16.1,10.3 16.9,10 17.8,9.4" /></g></svg>